# Made in Blockbench 5.1.4
mtllib ice_block.mtl

o ice_block
v -0.078125 -0.48251760683760686 0.15000000000000002
v -0.15625 0.17657350427350424 0.21875
v -0.15625 0.17657350427350424 -0.21875
v 0.15625 0.17657350427350424 0.21875
v 0.078125 -0.48251760683760686 -0.15000000000000002
v -0.078125 -0.48251760683760686 -0.15000000000000002
v -0.1171875 0.17657350427350424 -0.25
v 0.078125 -0.48251760683760686 0.15000000000000002
v 0.1171875 0.17657350427350424 0.25
v -0.1171875 0.17657350427350424 0.25
v 0.15625 0.17657350427350424 -0.21875
v 0.1171875 0.17657350427350424 -0.25
v 0 0.5174823931623931 0
vt 0.75 1
vt 0 1
vt 0 0.75
vt 0.75 0.75
vt 0.75 0.75
vt 0.75 1
vt 0 1
vt 0 0.75
vt 0 0.25
vt 0.75 0.25
vt 0.75 1
vt 0 1
vt 0.75 0.75
vt 0.75 1
vt 0 1
vt 0 0.75
vt 0.75 1
vt 0 1
vt 0 0.75
vt 0.75 0.75
vt 0.75 1
vt 0 0.823225
vt 0.75 0.823225
vt 0.75 0.823225
vt 0 1
vt 0 0.823225
vt 0 1
vt 0 0.823225
vt 0.75 0.823225
vt 0.0883875 1
vt 0 0.84690625
vt 0.176775 0.84690625
vt 0.0883875 1
vt 0 0.84690625
vt 0.176775 0.84690625
vt 0.0883875 1
vt 0 0.84690625
vt 0.176775 0.84690625
vt 0.421875 0.809275
vt 0 1
vt 0 0.809275
vt 0.0883875 1
vt 0 0.84690625
vt 0.176775 0.84690625
vt 0.08450625 1
vt 0 1
vt 0.0151625 0.060250000000000026
vt 0.11050625 1
vt 0.026 1
vt 0 0.057668750000000046
vt 0.08450625 1
vt 0 1
vt 0.0151625 0.060250000000000026
vt 0.08450625 1
vt 0 1
vt 0.03250625 0.09348749999999995
vn 0.993047966542038 -0.11771039098874723 0
vn -0.993047966542038 -0.11771039098874723 0
vn 0 -1 0
vn 0 -0.15000731613439008 0.9886848866581088
vn 0 -0.15000731613439006 -0.9886848866581088
vn 0.9090647293743952 0.4166549145365473 0
vn -0.9090647293743952 0.4166549145365473 0
vn 0 0.5913638915133865 -0.806404828739352
vn 0.49081257264287753 0.6186287133634198 0.6135157158035968
vn -0.49081257264287753 0.6186287133634198 0.6135157158035968
vn -0.49081257264287753 0.6186287133634198 -0.6135157158035968
vn 0 0.5913638915133865 0.806404828739352
vn 0.49081257264287753 0.6186287133634198 -0.6135157158035968
vn 0.617276620429906 -0.15365393923846862 0.7715957755373825
vn 0.617276620429906 -0.15365393923846862 -0.7715957755373825
vn -0.617276620429906 -0.15365393923846862 -0.7715957755373825
vn -0.617276620429906 -0.15365393923846862 0.7715957755373825
usemtl none
f 11/1/1 4/2/1 8/3/1 5/4/1
f 1/5/2 2/6/2 3/7/2 6/8/2
f 6/9/3 5/10/3 8/11/3 1/12/3
f 8/13/4 9/14/4 10/15/4 1/16/4
f 7/17/5 12/18/5 5/19/5 6/20/5
f 13/21/6 4/22/6 11/23/6
f 2/24/7 13/25/7 3/26/7
f 13/27/8 12/28/8 7/29/8
f 13/30/9 9/31/9 4/32/9
f 13/33/10 2/34/10 10/35/10
f 13/36/11 7/37/11 3/38/11
f 9/39/12 13/40/12 10/41/12
f 13/42/13 11/43/13 12/44/13
f 4/45/14 9/46/14 8/47/14
f 12/48/15 11/49/15 5/50/15
f 3/51/16 7/52/16 6/53/16
f 10/54/17 2/55/17 1/56/17